<?xml version="1.0" encoding="UTF-8"?><svg id="Layer_1" xmlns="http://www.w3.org/2000/svg" viewBox="0 0 72 30.64"><defs><style>.cls-1{fill-rule:evenodd;}.cls-1,.cls-2{fill:#878788;}.cls-1,.cls-2,.cls-3,.cls-4,.cls-5,.cls-6{stroke-width:0px;}.cls-3{fill:#959193;}.cls-4{fill:#bebebe;}.cls-5{fill:#bfbfbf;}.cls-6{fill:#e3e3e3;}</style></defs><path class="cls-1" d="M60.78,17.32c2.55,0,4.35-1.41,4.28-3.57l-.76-1.63-9.26-8.92c-1.49-1.42-2.46-1.42-4.41-1.42h-31.9c-2.09,0-3.14.75-4.31,2.01L5.95,11.9l-.5.74-.17.31.25.87c0,.91,1.49,3.5,4.11,3.5h51.13Z"/><path class="cls-6" d="M7.61,11.37h54.62c1.56,0,2.82,1.26,2.82,2.82v10.54c0,1.56-1.26,2.82-2.82,2.82H8.11c-1.56,0-2.82-1.26-2.82-2.82v-11.05c0-1.27,1.03-2.31,2.31-2.31Z"/><path class="cls-5" d="M62.23,27.97H8.11c-1.78,0-3.24-1.45-3.24-3.24v-11.05c0-1.5,1.22-2.73,2.73-2.73h54.62c1.79,0,3.24,1.45,3.24,3.24v10.54c0,1.78-1.45,3.24-3.24,3.24ZM7.61,11.79c-1.04,0-1.89.85-1.89,1.89v11.05c0,1.32,1.08,2.4,2.4,2.4h54.11c1.32,0,2.4-1.08,2.4-2.4v-10.54c0-1.32-1.08-2.4-2.4-2.4H7.61Z"/><path class="cls-4" d="M32.45,3.89l2.54-1.45c.1-.06.26-.06.35,0l2.52,1.45c.11.06.12.15.02.21l-2.54,1.45c-.11.06-.28.06-.39,0l-2.52-1.45c-.1-.06-.09-.15.02-.21"/><path class="cls-4" d="M28.5,5.91l2.87-1.45c.11-.06.28-.06.38,0l2.52,1.45c.11.06.11.15,0,.21l-2.87,1.45c-.12.06-.31.06-.42,0l-2.52-1.45c-.1-.06-.08-.15.04-.21"/><path class="cls-4" d="M36.12,5.97l2.54-1.45c.1-.06.27-.06.38,0l2.87,1.45c.12.06.14.15.04.21l-2.54,1.45c-.11.06-.3.06-.42,0l-2.87-1.45c-.11-.06-.11-.15,0-.21"/><path class="cls-4" d="M32.17,7.99l2.87-1.45c.11-.06.29-.06.4,0l2.87,1.45c.12.06.13.15.02.21l-2.87,1.45c-.12.06-.32.06-.44,0l-2.87-1.45c-.11-.06-.1-.15.02-.21"/><path class="cls-2" d="M58.98,16.95h-15.42c-.38,0-.7-.31-.7-.7s.31-.7.7-.7h15.42c.38,0,.7.31.7.7s-.31.7-.7.7Z"/><path class="cls-2" d="M58.98,20.46h-15.42c-.38,0-.7-.31-.7-.7s.31-.7.7-.7h15.42c.38,0,.7.31.7.7s-.31.7-.7.7Z"/><path class="cls-2" d="M58.98,24.13h-15.42c-.38,0-.7-.31-.7-.7s.31-.7.7-.7h15.42c.38,0,.7.31.7.7s-.31.7-.7.7Z"/><circle class="cls-3" cx="11.71" cy="16.66" r="1.63"/></svg>