<?xml version="1.0" encoding="UTF-8"?><svg id="Layer_1" xmlns="http://www.w3.org/2000/svg" viewBox="0 0 72 62.11"><defs><style>.cls-1{fill:#878788;}.cls-1,.cls-2,.cls-3,.cls-4,.cls-5,.cls-6{stroke-width:0px;}.cls-2{fill:#6e6f6f;}.cls-3{fill:#bdbbbc;}.cls-4{fill:#cecece;}.cls-5{fill:#818182;}.cls-6{fill:#e3e3e3;}</style></defs><polygon class="cls-4" points="36.43 59.54 2.09 39.31 2.09 30.15 36.43 49.54 36.43 59.54"/><polygon class="cls-6" points="36.52 49.56 2.23 30.24 36.4 11.48 70.21 29.96 36.52 49.56"/><polygon class="cls-1" points="69.96 38.97 36.4 59.54 36.4 49.54 69.96 30.02 69.96 38.97"/><path class="cls-5" d="M33.3,51.26c-.06,0-.12-.01-.17-.04l-7.21-4.04c-.17-.09-.23-.31-.13-.48.09-.17.3-.23.48-.13l7.21,4.04c.17.09.23.31.13.48-.06.11-.18.18-.3.18Z"/><path class="cls-5" d="M33.3,53.38c-.06,0-.12-.01-.17-.04l-7.21-4.03c-.17-.09-.23-.31-.13-.48.09-.17.3-.23.48-.13l7.21,4.03c.17.09.23.31.13.48-.06.11-.18.18-.3.18Z"/><path class="cls-5" d="M33.3,55.5c-.06,0-.12-.01-.17-.04l-7.21-4.04c-.17-.09-.23-.31-.13-.48.09-.17.3-.23.48-.13l7.21,4.04c.17.09.23.31.13.48-.06.11-.18.18-.3.18Z"/><ellipse class="cls-2" cx="4.91" cy="35.76" rx=".67" ry="1.11" transform="translate(-16.99 7.07) rotate(-29.54)"/><path class="cls-3" d="M42.97,30.36l-6.32-.18c-.26,0-.44-.13-.41-.28l.78-3.58c.03-.15.27-.26.52-.25l6.32.18c.26,0,.44.13.41.28l-.78,3.58c-.03.15-.27.26-.52.25"/><path class="cls-3" d="M34.59,30.11l-6.32-.18c-.26,0-.44-.13-.41-.28l.78-3.58c.03-.15.27-.26.52-.25l6.32.18c.26,0,.44.13.41.28l-.78,3.58c-.03.15-.27.26-.52.25"/><path class="cls-3" d="M41.91,35.22l-6.32-.18c-.26,0-.44-.13-.41-.28l.78-3.58c.03-.15.27-.26.52-.25l6.32.18c.26,0,.44.13.41.28l-.78,3.58c-.03.15-.27.26-.52.25"/><path class="cls-3" d="M33.53,34.98l-6.32-.18c-.26,0-.44-.13-.41-.28l.78-3.58c.03-.15.27-.26.52-.25l6.32.18c.26,0,.44.13.41.28l-.78,3.58c-.03.15-.27.26-.52.25"/><path class="cls-5" d="M23.76,46.1c-.06,0-.12-.01-.17-.04l-7.21-4.04c-.17-.09-.23-.31-.13-.48.09-.17.31-.23.48-.13l7.21,4.04c.17.09.23.31.13.48-.06.11-.18.18-.3.18Z"/><path class="cls-5" d="M23.76,48.22c-.06,0-.12-.01-.17-.04l-7.21-4.03c-.17-.09-.23-.31-.13-.48.09-.17.31-.23.48-.13l7.21,4.03c.17.09.23.31.13.48-.06.11-.18.18-.3.18Z"/><path class="cls-5" d="M23.76,50.34c-.06,0-.12-.01-.17-.04l-7.21-4.04c-.17-.09-.23-.31-.13-.48.09-.17.31-.23.48-.13l7.21,4.04c.17.09.23.31.13.48-.06.11-.18.18-.3.18Z"/><polygon class="cls-4" points="36.43 48.36 2.09 28.95 2.09 19.79 36.43 38.36 36.43 48.36"/><polygon class="cls-6" points="36.52 38.38 2.23 19.88 36.4 2.15 69.96 19.87 36.52 38.38"/><polygon class="cls-1" points="69.96 28.85 36.4 48.36 36.4 38.36 69.96 19.9 69.96 28.85"/><path class="cls-5" d="M33.3,40.07c-.06,0-.12-.01-.17-.04l-7.21-4.04c-.17-.09-.23-.31-.13-.48.09-.17.3-.23.48-.13l7.21,4.04c.17.09.23.31.13.48-.06.11-.18.18-.3.18Z"/><path class="cls-5" d="M33.3,42.19c-.06,0-.12-.01-.17-.04l-7.21-4.04c-.17-.09-.23-.31-.13-.48.09-.17.3-.23.48-.13l7.21,4.04c.17.09.23.31.13.48-.06.11-.18.18-.3.18Z"/><path class="cls-5" d="M33.3,44.32c-.06,0-.12-.01-.17-.04l-7.21-4.04c-.17-.09-.23-.31-.13-.48.09-.17.3-.23.48-.13l7.21,4.04c.17.09.23.31.13.48-.06.11-.18.18-.3.18Z"/><ellipse class="cls-2" cx="4.91" cy="24.57" rx=".67" ry="1.11" transform="translate(-11.48 5.62) rotate(-29.54)"/><path class="cls-3" d="M44.47,19.12l-7.58-.22c-.31,0-.53-.16-.49-.33l.94-4.3c.04-.18.32-.31.63-.3l7.58.22c.31,0,.53.16.49.33l-.94,4.3c-.04.18-.32.31-.63.3"/><path class="cls-3" d="M34.42,18.83l-7.58-.22c-.31,0-.53-.16-.49-.33l.94-4.3c.04-.18.32-.31.63-.3l7.58.22c.31,0,.53.16.49.33l-.94,4.3c-.04.18-.32.31-.63.3"/><path class="cls-3" d="M43.2,24.96l-7.58-.22c-.31,0-.53-.16-.49-.33l.94-4.3c.04-.18.32-.31.63-.3l7.58.22c.31,0,.53.16.49.33l-.94,4.3c-.04.18-.32.31-.63.3"/><path class="cls-3" d="M33.14,24.67l-7.58-.22c-.31,0-.53-.16-.49-.33l.94-4.3c.04-.18.32-.31.63-.3l7.58.22c.31,0,.53.16.49.33l-.94,4.3c-.04.18-.32.31-.63.3"/><path class="cls-5" d="M23.76,34.92c-.06,0-.12-.01-.17-.04l-7.21-4.04c-.17-.09-.23-.31-.13-.48.09-.17.31-.23.48-.13l7.21,4.04c.17.09.23.31.13.48-.06.11-.18.18-.3.18Z"/><path class="cls-5" d="M23.76,37.04c-.06,0-.12-.01-.17-.04l-7.21-4.04c-.17-.09-.23-.31-.13-.48.09-.17.31-.23.48-.13l7.21,4.04c.17.09.23.31.13.48-.06.11-.18.18-.3.18Z"/><path class="cls-5" d="M23.76,39.16c-.06,0-.12-.01-.17-.04l-7.21-4.04c-.17-.09-.23-.31-.13-.48.09-.17.31-.23.48-.13l7.21,4.04c.17.09.23.31.13.48-.06.11-.18.18-.3.18Z"/></svg>