<?xml version="1.0" encoding="UTF-8"?><svg id="Layer_1" xmlns="http://www.w3.org/2000/svg" viewBox="0 0 72 55.36"><defs><style>.cls-1{fill:#878788;}.cls-1,.cls-2,.cls-3,.cls-4,.cls-5,.cls-6{stroke-width:0px;}.cls-2{fill:#6e6f6f;}.cls-3{fill:#bdbbbc;}.cls-4{fill:#cecece;}.cls-5{fill:#818182;}.cls-6{fill:#e3e3e3;}</style></defs><polygon class="cls-4" points="36.61 51.24 2.26 31.01 2.26 21.85 36.61 41.25 36.61 51.24"/><polygon class="cls-6" points="36.69 41.26 2.41 21.94 36.57 3.18 70.38 21.66 36.69 41.26"/><polygon class="cls-1" points="70.14 30.67 36.57 51.24 36.57 41.25 70.14 21.72 70.14 30.67"/><path class="cls-5" d="M33.48,42.96c-.06,0-.12-.01-.17-.04l-7.21-4.04c-.17-.09-.23-.31-.13-.48.09-.17.31-.23.48-.13l7.21,4.04c.17.09.23.31.13.48-.06.11-.18.18-.3.18Z"/><path class="cls-5" d="M33.48,45.08c-.06,0-.12-.01-.17-.04l-7.21-4.04c-.17-.09-.23-.31-.13-.48.09-.17.31-.23.48-.13l7.21,4.04c.17.09.23.31.13.48-.06.11-.18.18-.3.18Z"/><path class="cls-5" d="M33.48,47.2c-.06,0-.12-.01-.17-.04l-7.21-4.04c-.17-.09-.23-.31-.13-.48.09-.17.31-.23.48-.13l7.21,4.04c.17.09.23.31.13.48-.06.11-.18.18-.3.18Z"/><ellipse class="cls-2" cx="5.09" cy="27.46" rx=".67" ry="1.11" transform="translate(-12.88 6.08) rotate(-29.54)"/><path class="cls-3" d="M44.53,21.99l-7.58-.22c-.31,0-.53-.16-.49-.33l.94-4.3c.04-.18.32-.31.63-.3l7.58.22c.31,0,.53.16.49.33l-.94,4.3c-.04.18-.32.31-.63.3"/><path class="cls-3" d="M34.48,21.7l-7.58-.22c-.31,0-.53-.16-.49-.33l.94-4.3c.04-.18.32-.31.63-.3l7.58.22c.31,0,.53.16.49.33l-.94,4.3c-.04.18-.32.31-.63.3"/><path class="cls-3" d="M43.26,27.83l-7.58-.22c-.31,0-.53-.16-.49-.33l.94-4.3c.04-.18.32-.31.63-.3l7.58.22c.31,0,.53.16.49.33l-.94,4.3c-.04.18-.32.31-.63.3"/><path class="cls-3" d="M33.2,27.53l-7.58-.22c-.31,0-.53-.16-.49-.33l.94-4.3c.04-.18.32-.31.63-.3l7.58.22c.31,0,.53.16.49.33l-.94,4.3c-.04.18-.32.31-.63.3"/><path class="cls-5" d="M23.94,37.8c-.06,0-.12-.01-.17-.04l-7.21-4.04c-.17-.09-.23-.31-.13-.48.09-.17.31-.23.48-.13l7.21,4.04c.17.09.23.31.13.48-.06.11-.18.18-.3.18Z"/><path class="cls-5" d="M23.94,39.93c-.06,0-.12-.01-.17-.04l-7.21-4.04c-.17-.09-.23-.31-.13-.48.09-.17.31-.23.48-.13l7.21,4.04c.17.09.23.31.13.48-.06.11-.18.18-.3.18Z"/><path class="cls-5" d="M23.94,42.05c-.06,0-.12-.01-.17-.04l-7.21-4.04c-.17-.09-.23-.31-.13-.48.09-.17.31-.23.48-.13l7.21,4.04c.17.09.23.31.13.48-.06.11-.18.18-.3.18Z"/></svg>